# xmcd
#
# Track frame offsets:
#	150
#	14476
#	25151
#	35553
#	50412
#	62361
#	75132
#	87952
#	101488
#	115542
#	127496
#	141204
#	154148
#	168001
#	182463
#	195431
#	207074
#	218471
#	229779
#	242497
#	253747
#	266458
#	278852
#	290806
#	303982
#
# Disc length: 4209 seconds
#
# Revision: 1
# Processed by: cddbd v1.5.2PL0 Copyright (c) Steve Scherf et al.
# Submitted via: audiograbber 1.83.01
#
DISCID=4c106f19
DTITLE=Freddy King - L'Anthologie du Blues #4
DYEAR=2016
DGENRE=Blues
TTITLE0=Have You Ever Loved A Woman
TTITLE1=You Know That You Love Me
TTITLE2=See See Baby
TTITLE3=You've Got To Love Her With A Feeling
TTITLE4=Hide Away
TTITLE5=I Love That Woman
TTITLE6=Lonesome Whistle Blues
TTITLE7=If You Believe (in what you do)
TTITLE8=It's Too Bad (Things are going so tough)
TTITLE9=I'm Tore Down
TTITLE10=Onion Rings
TTITLE11=Sen-Sa-Shun
TTITLE12=Side Tracked
TTITLE13=The Stumble
TTITLE14=San-Ho-Zay
TTITLE15=Wash Out
TTITLE16=Just Pickin'
TTITLE17=Heads Up
TTITLE18=Christmas Tears
TTITLE19=Let Me Be (Stay away from me)
TTITLE20=Talkin' Care Of Business
TTITLE21=You Mean Mean Woman (How can your love be true)
TTITLE22=I Hear Jingle Bells
TTITLE23=In The Open
TTITLE24=Out Front
EXTD=
EXTT0=
EXTT1=
EXTT2=
EXTT3=
EXTT4=
EXTT5=
EXTT6=
EXTT7=
EXTT8=
EXTT9=
EXTT10=
EXTT11=
EXTT12=
EXTT13=
EXTT14=
EXTT15=
EXTT16=
EXTT17=
EXTT18=
EXTT19=
EXTT20=
EXTT21=
EXTT22=
EXTT23=
EXTT24=
PLAYORDER=
